<svg width="37" height="37" viewBox="0 0 37 37" fill="none" xmlns="http://www.w3.org/2000/svg">
<path fill-rule="evenodd" clip-rule="evenodd" d="M36.8127 9.23951V27.7187C36.8127 32.8182 32.689 36.9583 27.6098 36.9583H9.20393C4.12469 36.9583 0.000976562 32.8182 0.000976562 27.7187V9.23951C0.000976562 4.14011 4.12469 0 9.20393 0H27.6098C32.689 0 36.8127 4.14011 36.8127 9.23951Z" fill="black"/>
<path fill-rule="evenodd" clip-rule="evenodd" d="M20.1345 16.5498C20.5093 16.5412 20.7621 16.2998 20.9307 15.898C21.2583 16.5644 20.3944 17.0669 20.1345 16.5498ZM21.352 15.6224C21.5716 15.4928 21.7572 15.3485 21.9047 15.1878C23.1133 17.0573 20.1962 19.511 19.1683 17.0814C19.3989 17.0227 19.6166 16.9411 19.806 16.8098C20.644 17.5187 21.7752 16.7542 21.352 15.6224ZM19.6553 26.3902C20.0597 26.6571 20.4782 26.5754 20.9084 26.2084C21.3034 26.8728 21.6836 27.5422 22.003 28.2319C22.4404 30.1008 19.9058 30.1239 19.6553 26.3902ZM21.4774 26.0751C21.8008 25.891 22.0391 25.65 22.177 25.3417C24.0624 26.7146 25.1839 27.8769 24.0271 28.3232C23.0801 28.4025 22.2231 27.7136 21.4774 26.0751ZM22.4839 24.8821C22.7093 24.626 22.8593 24.3226 22.9236 23.9654L26.904 26.0329C26.9098 27.5933 24.7455 27.4047 22.4839 24.8821ZM19.3298 24.0972C19.6848 23.1676 20.5188 22.945 20.912 23.4181C22.4399 23.1493 21.9668 25.3886 20.9302 25.4128C21.2647 24.9536 21.3233 24.5647 21.1717 24.37C21.0124 24.1126 20.7267 24.2251 20.8004 24.4877C20.8822 25.2625 20.5097 25.5269 20.049 25.6921C20.3077 25.0874 20.2877 24.6553 19.9408 24.4256C19.5317 24.793 19.5356 25.2311 19.6553 25.6891C18.9843 25.5373 18.6269 24.2386 19.3298 24.0972ZM18.4069 16.8481C17.9347 16.9731 17.3282 16.175 16.8135 15.741C16.2883 15.1796 15.6301 14.7231 14.8408 14.3702C12.693 13.6363 12.4924 12.6294 13.0273 11.5193C13.8846 13.0156 15.5413 13.3316 16.3623 13.491C16.7894 13.1259 17.4844 12.8737 18.4069 12.8767C19.3294 12.8737 20.0244 13.1259 20.4516 13.491C21.2725 13.3316 22.9293 13.0156 23.7866 11.5193C24.3215 12.6294 24.1209 13.6363 21.9731 14.3702C21.1837 14.7231 20.5255 15.1796 20.0004 15.741C19.4857 16.175 18.8791 16.9731 18.4069 16.8481ZM18.4069 19.2519C17.9598 18.5773 17.6975 17.5523 18.4069 17.5523C19.1164 17.5523 18.8541 18.5773 18.4069 19.2519ZM18.4069 23.229C17.0909 22.4099 16.0585 21.3162 15.8706 19.4049C15.3073 20.2758 15.4276 21.1676 16.1929 22.0789C15.7505 21.9585 15.3265 21.7767 14.9445 21.4542C15.0068 21.9833 15.2166 22.4138 15.5204 22.7813C13.2906 22.0462 12.6206 18.4668 14.04 16.5003C14.3371 18.3302 15.8977 19.2265 17.3052 19.1427C17.8005 19.6933 18.1436 20.0062 18.4069 20.1946C18.6703 20.0062 19.0134 19.6933 19.5087 19.1427C20.9162 19.2265 22.4768 18.3302 22.7739 16.5003C24.1933 18.4668 23.5233 22.0462 21.2935 22.7813C21.5973 22.4138 21.8071 21.9833 21.8694 21.4542C21.4874 21.7767 21.0634 21.9585 20.621 22.0789C21.3863 21.1676 21.5065 20.2758 20.9433 19.4049C20.7553 21.3162 19.723 22.4099 18.4069 23.229ZM21.8958 19.7799C21.9408 20.5792 21.8186 20.783 21.717 21.0605C22.3267 20.7689 22.679 20.0424 22.7606 18.8584C22.503 19.3453 22.2308 19.7465 21.8958 19.7799ZM18.4069 22.058C19.3696 21.4453 20.0489 20.6934 20.0773 19.6117C19.6481 20.3454 19.0938 20.8827 18.4069 21.2123C17.7201 20.8827 17.1657 20.3454 16.7366 19.6117C16.765 20.6934 17.4443 21.4453 18.4069 22.058ZM18.4069 29.9434C17.568 29.8724 17.1026 28.7806 17.792 26.0571C17.8624 26.0653 17.9299 26.0564 17.995 26.0329C18.0853 26.5588 18.226 27.0756 18.4069 27.585C18.5879 27.0756 18.7286 26.5588 18.8189 26.0329C18.884 26.0564 18.9515 26.0653 19.0218 26.0571C19.7113 28.7806 19.2459 29.8724 18.4069 29.9434ZM16.6794 16.5498C16.4195 17.0669 15.5556 16.5644 15.8832 15.898C16.0518 16.2998 16.3046 16.5412 16.6794 16.5498ZM15.4619 15.6224C15.0387 16.7542 16.1698 17.5187 17.0079 16.8098C17.1973 16.9411 17.415 17.0227 17.6456 17.0814C16.6177 19.511 13.7006 17.0573 14.9092 15.1878C15.0567 15.3485 15.2422 15.4928 15.4619 15.6224ZM17.1586 26.3902C16.9081 30.1239 14.3734 30.1008 14.8109 28.2319C15.1303 27.5422 15.5105 26.8728 15.9055 26.2084C16.3356 26.5754 16.7542 26.6571 17.1586 26.3902ZM15.3365 26.0751C14.5908 27.7136 13.7338 28.4025 12.7868 28.3232C11.63 27.8769 12.7515 26.7146 14.6369 25.3417C14.7748 25.65 15.013 25.891 15.3365 26.0751ZM14.33 24.8821C12.0684 27.4047 9.90413 27.5933 9.90992 26.0329L13.8903 23.9654C13.9546 24.3226 14.1046 24.626 14.33 24.8821ZM17.4841 24.0972C18.1869 24.2386 17.8295 25.5373 17.1586 25.6891C17.2783 25.2311 17.2822 24.793 16.8731 24.4256C16.5262 24.6553 16.5062 25.0874 16.7649 25.6921C16.3042 25.5269 15.9317 25.2625 16.0135 24.4877C16.0872 24.2251 15.8015 24.1126 15.6422 24.37C15.4906 24.5647 15.5492 24.9536 15.8837 25.4128C14.8471 25.3886 14.374 23.1493 15.9019 23.4181C16.2951 22.945 17.1291 23.1676 17.4841 24.0972Z" fill="#E5E5E5"/>
<path fill-rule="evenodd" clip-rule="evenodd" d="M18.4119 11.1827C18.2912 9.90139 17.6301 9.27467 16.5972 9.09857C17.6301 8.92251 18.2912 8.29574 18.4119 7.0144C18.5327 8.29574 19.1938 8.92251 20.2267 9.09857C19.1938 9.27467 18.5327 9.90139 18.4119 11.1827Z" fill="#E5E5E5"/>
<path fill-rule="evenodd" clip-rule="evenodd" d="M22.4092 10.6598C22.3382 9.90667 21.9497 9.53829 21.3425 9.43478C21.9497 9.33129 22.3382 8.96288 22.4092 8.20972C22.4802 8.96288 22.8688 9.33129 23.476 9.43478C22.8688 9.53829 22.4802 9.90667 22.4092 10.6598Z" fill="#E5E5E5"/>
<path fill-rule="evenodd" clip-rule="evenodd" d="M14.3661 9.1954C14.3278 8.78921 14.1182 8.59054 13.7908 8.53471C14.1182 8.4789 14.3278 8.28021 14.3661 7.87402C14.4044 8.28021 14.6139 8.4789 14.9414 8.53471C14.6139 8.59054 14.4044 8.78921 14.3661 9.1954Z" fill="#E5E5E5"/>
<path fill-rule="evenodd" clip-rule="evenodd" d="M11.3778 18.3209C11.3395 17.9147 11.1299 17.716 10.8025 17.6602C11.1299 17.6044 11.3395 17.4057 11.3778 16.9995C11.4161 17.4057 11.6256 17.6044 11.9531 17.6602C11.6256 17.716 11.4161 17.9147 11.3778 18.3209Z" fill="#E5E5E5"/>
<path fill-rule="evenodd" clip-rule="evenodd" d="M27.6005 19.7438C27.5592 19.3064 27.3336 19.0924 26.981 19.0323C27.3336 18.9722 27.5592 18.7582 27.6005 18.3208C27.6417 18.7582 27.8674 18.9722 28.22 19.0323C27.8674 19.0924 27.6417 19.3064 27.6005 19.7438Z" fill="#E5E5E5"/>
<path fill-rule="evenodd" clip-rule="evenodd" d="M14.9414 11.1828C14.9111 10.8613 14.7452 10.704 14.4861 10.6599C14.7452 10.6157 14.9111 10.4584 14.9414 10.137C14.9717 10.4584 15.1375 10.6157 15.3967 10.6599C15.1375 10.704 14.9717 10.8613 14.9414 11.1828Z" fill="#E5E5E5"/>
<path fill-rule="evenodd" clip-rule="evenodd" d="M11.9456 10.3724C11.9215 10.1174 11.79 9.99272 11.5845 9.95768C11.79 9.92264 11.9215 9.79793 11.9456 9.54297C11.9696 9.79793 12.1011 9.92264 12.3067 9.95768C12.1011 9.99272 11.9696 10.1174 11.9456 10.3724Z" fill="#E5E5E5"/>
<path d="M25.3741 8.17093C25.4953 8.17093 25.5935 8.07233 25.5935 7.9507C25.5935 7.82907 25.4953 7.73047 25.3741 7.73047C25.253 7.73047 25.1548 7.82907 25.1548 7.9507C25.1548 8.07233 25.253 8.17093 25.3741 8.17093Z" fill="#E5E5E5"/>
<path d="M24.8827 11.0767C24.9831 11.0767 25.0645 10.995 25.0645 10.8942C25.0645 10.7934 24.9831 10.7117 24.8827 10.7117C24.7823 10.7117 24.7009 10.7934 24.7009 10.8942C24.7009 10.995 24.7823 11.0767 24.8827 11.0767Z" fill="#E5E5E5"/>
<path d="M25.1838 21.6746C25.3511 21.6746 25.4867 21.5385 25.4867 21.3705C25.4867 21.2026 25.3511 21.0664 25.1838 21.0664C25.0165 21.0664 24.8809 21.2026 24.8809 21.3705C24.8809 21.5385 25.0165 21.6746 25.1838 21.6746Z" fill="#E5E5E5"/>
<path d="M25.9708 16.9581C26.0687 16.9581 26.148 16.8784 26.148 16.7801C26.148 16.6817 26.0687 16.6021 25.9708 16.6021C25.8728 16.6021 25.7935 16.6817 25.7935 16.7801C25.7935 16.8784 25.8728 16.9581 25.9708 16.9581Z" fill="#E5E5E5"/>
<path fill-rule="evenodd" clip-rule="evenodd" d="M28.876 28.6429C27.0238 28.7428 25.2053 28.7866 24.9102 28.7999C24.7736 28.8062 25.6442 28.4372 25.9306 28.4068C26.8158 28.3126 27.8261 28.2773 28.8259 28.2365C28.8666 27.7106 29.3051 27.296 29.8393 27.296C30.2254 27.296 30.5616 27.5126 30.7336 27.8313C30.7822 27.9213 30.8177 28.0195 30.8375 28.1232C31.5675 28.0607 32.232 27.9669 32.7634 27.8101C33.1277 27.7025 33.417 27.4935 33.6173 27.3181C33.7782 27.1773 33.867 27.0071 33.8537 26.795C33.8191 26.2444 33.3926 25.8251 32.6055 25.5064C31.2721 24.9665 29.4795 24.9838 26.2271 24.6589C26.091 24.6453 25.3298 24.3975 25.4664 24.3914C28.9219 24.2376 31.4177 24.4889 32.7908 25.045C33.8084 25.457 34.3583 26.0506 34.3482 26.7637C34.3388 27.435 33.7987 27.9282 32.8688 28.2184C32.4861 28.3378 31.7409 28.4342 30.8372 28.5116C30.7464 28.9816 30.3338 29.337 29.8393 29.337C29.3919 29.337 29.0117 29.0462 28.876 28.6429ZM29.8393 27.7935C29.5518 27.7935 29.3183 28.0278 29.3183 28.3165C29.3183 28.6051 29.5518 28.8395 29.8393 28.8395C30.1268 28.8395 30.3602 28.6051 30.3602 28.3165C30.3602 28.0278 30.1268 27.7935 29.8393 27.7935Z" fill="#E5E5E5"/>
<path fill-rule="evenodd" clip-rule="evenodd" d="M4.27797 28.5672C3.05987 27.9769 2.62687 27.5851 2.50185 27.0374C2.36233 26.426 2.62222 25.8305 3.33508 25.3313C3.74571 25.0438 4.23936 24.8571 4.86603 24.7321C4.63485 23.7073 4.80861 22.9347 5.29779 22.4351C5.80022 21.9219 6.52288 21.6482 7.42468 21.668C8.7303 21.6966 9.99492 22.3384 11.0982 23.4952C11.1878 23.5891 10.7477 23.583 10.6481 23.4997C9.44315 22.491 8.29762 22.0539 7.24973 22.1347C6.56521 22.1874 6.00973 22.3289 5.65316 22.7433C5.28923 23.1662 5.07715 23.8224 5.24294 24.6665C6.55546 24.4682 8.39986 24.4716 11.136 24.3943C11.2513 24.3911 10.2678 24.7138 10.1529 24.7225C8.11163 24.8765 6.54267 24.8733 5.35112 25.0566C6.24219 27.7529 7.99498 28.1635 10.7902 28.426C10.9285 28.439 11.9665 28.8026 11.8304 28.8071C8.80976 28.9069 6.10005 28.2337 4.98144 25.1222C4.42392 25.236 3.95876 25.4059 3.57394 25.6753C3.13713 25.981 2.93641 26.3158 2.92468 26.6725C2.91621 26.9302 2.97939 27.261 3.22741 27.511C3.49006 27.7756 3.79072 28.1165 4.41095 28.2156C4.47804 28.1587 4.56473 28.1244 4.65938 28.1244C4.87206 28.1244 5.04475 28.2978 5.04475 28.5114C5.04475 28.7249 4.87206 28.8983 4.65938 28.8983C4.46557 28.8983 4.30498 28.7543 4.27797 28.5672ZM6.42013 28.5114C6.63281 28.5114 6.8055 28.6847 6.8055 28.8983C6.8055 29.1118 6.63281 29.2852 6.42013 29.2852C6.20745 29.2852 6.03476 29.1118 6.03476 28.8983C6.03476 28.6847 6.20745 28.5114 6.42013 28.5114Z" fill="#E5E5E5"/>
<path fill-rule="evenodd" clip-rule="evenodd" d="M19.6554 26.3902C20.0597 26.657 20.4783 26.5753 20.9084 26.2083C21.3034 26.8727 21.2599 26.7258 21.5793 27.4155C21.7314 28.3213 19.7656 29.2417 19.6554 26.3902ZM21.4775 26.075C21.8009 25.891 22.0392 25.6499 22.1771 25.3416C22.5674 25.6167 23.718 26.2067 22.6315 26.8354C21.8076 27.1208 21.8919 26.8305 21.4775 26.075ZM22.484 24.8821C22.7093 24.6259 22.8593 24.3225 22.9236 23.9653L24.2845 24.6818C23.5673 25.8615 22.8417 25.443 22.484 24.8821ZM21.9047 19.7789L21.78 19.4807C22.1847 19.1562 22.5383 18.6587 22.8356 17.9711C23.227 18.4891 23.3443 19.2459 23.4243 19.9956C23.1748 21.2724 22.4405 22.4031 21.2935 22.7812C21.5944 22.4173 21.803 21.9917 21.8675 21.4697C22.1106 21.219 23.2404 19.7297 22.7866 18.7786C22.7175 18.9362 22.4989 19.3277 22.269 19.583C22.1551 19.6926 22.0346 19.7634 21.9047 19.7789ZM20.6217 22.0787L20.621 22.0789C21.3757 21.1802 21.5031 20.3006 20.9665 19.4413C20.9558 19.3997 20.9443 19.3582 20.9319 19.3168C21.7715 20.1892 21.6558 21.1154 20.6217 22.0787ZM24.0287 12.3064C24.1084 13.0896 23.6153 13.7926 22.0466 14.3447C22.6136 13.7481 23.6591 12.9667 24.0287 12.3064ZM18.407 16.8481C18.1252 16.9226 17.7956 16.6686 17.4663 16.3593C17.81 16.5879 18.1538 16.7466 18.407 16.6797C18.6603 16.7466 19.004 16.5879 19.3477 16.3593C19.0183 16.6686 18.6887 16.9226 18.407 16.8481ZM18.407 21.2123C17.7203 20.8827 17.1659 20.3454 16.7368 19.6118C16.7299 19.5571 16.7337 19.5202 16.7345 19.4807C17.132 19.9895 17.6741 20.4668 18.407 20.8604C19.1399 20.4668 19.6821 19.9895 20.0794 19.4807C20.0803 19.5202 20.084 19.5571 20.0772 19.6118C19.6481 20.3454 19.0938 20.8827 18.407 21.2123ZM18.407 22.2493C18.5061 22.1605 19.3157 21.6418 19.5712 21.5304C19.881 21.3952 20.341 21.0882 20.5529 20.9382C20.1029 21.9515 19.3301 22.6523 18.4204 23.2206C18.4162 23.2232 18.4114 23.2262 18.407 23.2289C18.4026 23.2263 18.3977 23.2232 18.3936 23.2206C17.4839 22.6523 16.7111 21.9515 16.2611 20.9382C16.473 21.0882 16.933 21.3952 17.2429 21.5304C17.4982 21.6418 18.3079 22.1605 18.407 22.2493ZM18.407 28.4221C17.6005 28.3343 17.2709 27.8431 17.7921 26.0476C17.8625 26.0526 17.93 26.0472 17.995 26.0328C18.0845 26.3512 18.2282 27.2401 18.407 27.5588C18.5858 27.2401 18.7295 26.3512 18.819 26.0328C18.884 26.0472 18.9515 26.0526 19.0219 26.0476C19.5431 27.8431 19.2135 28.3343 18.407 28.4221ZM17.1586 26.3902C17.0485 29.2417 15.0826 28.3213 15.2347 27.4155C15.554 26.7258 15.5106 26.8727 15.9055 26.2083C16.3357 26.5753 16.7542 26.657 17.1586 26.3902ZM15.3365 26.075C14.9221 26.8305 15.0064 27.1208 14.1825 26.8354C13.0961 26.2067 14.2466 25.6167 14.637 25.3416C14.7749 25.6499 15.0131 25.891 15.3365 26.075ZM14.33 24.8821C13.9723 25.443 13.2466 25.8615 12.5295 24.6818L13.8904 23.9653C13.9547 24.3225 14.1047 24.6259 14.33 24.8821ZM14.9093 19.7789C14.7794 19.7634 14.6589 19.6926 14.545 19.583C14.3151 19.3277 14.0965 18.9362 14.0274 18.7786C13.5737 19.7297 14.7034 21.219 14.9465 21.4697C15.011 21.9917 15.2196 22.4173 15.5204 22.7812C14.3734 22.4031 13.6392 21.2724 13.3897 19.9956C13.4697 19.2459 13.587 18.4891 13.9784 17.9711C14.2757 18.6587 14.6292 19.1562 15.0341 19.4807L14.9093 19.7789ZM16.1923 22.0787C15.1582 21.1154 15.0424 20.1892 15.8821 19.3168C15.8697 19.3582 15.8581 19.3997 15.8475 19.4413C15.3108 20.3006 15.4383 21.1802 16.193 22.0789L16.1923 22.0787ZM12.7852 12.3064C13.1549 12.9667 14.2004 13.7481 14.7674 14.3447C13.1987 13.7926 12.7056 13.0896 12.7852 12.3064Z" fill="#14213D" fill-opacity="0.35"/>
</svg>
