<svg width="223" height="58" viewBox="0 0 223 58" fill="none" xmlns="http://www.w3.org/2000/svg">
<path fill-rule="evenodd" clip-rule="evenodd" d="M57.8112 14.4836V43.4509C57.8112 51.4447 51.3353 57.9346 43.3587 57.9346H14.4538C6.4772 57.9346 0.0012207 51.4447 0.0012207 43.4509V14.4836C0.0012207 6.4899 6.4772 0 14.4538 0H43.3587C51.3353 0 57.8112 6.4899 57.8112 14.4836Z" fill="black"/>
<path fill-rule="evenodd" clip-rule="evenodd" d="M31.6192 25.9431C32.2077 25.9295 32.6047 25.5512 32.8696 24.9212C33.384 25.9659 32.0273 26.7536 31.6192 25.9431ZM33.5311 24.4893C33.8761 24.2861 34.1675 24.0599 34.3991 23.8081C36.2971 26.7386 31.7161 30.5849 30.1018 26.7764C30.464 26.6843 30.8058 26.5564 31.1033 26.3506C32.4194 27.4618 34.1958 26.2634 33.5311 24.4893ZM30.8667 41.3686C31.5017 41.7869 32.159 41.6588 32.8345 41.0835C33.4548 42.125 34.0519 43.1743 34.5535 44.2555C35.2405 47.1851 31.26 47.2214 30.8667 41.3686ZM33.7281 40.8746C34.236 40.5861 34.6102 40.2082 34.8267 39.7249C37.7877 41.8771 39.5489 43.6991 37.7322 44.3986C36.245 44.5229 34.8992 43.443 33.7281 40.8746ZM35.3088 39.0045C35.6626 38.603 35.8982 38.1274 35.9992 37.5674L42.2501 40.8084C42.2592 43.2544 38.8604 42.9589 35.3088 39.0045ZM30.3555 37.7741C30.9129 36.3169 32.2227 35.968 32.8402 36.7096C35.2396 36.2882 34.4966 39.7985 32.8687 39.8364C33.3941 39.1166 33.4861 38.5069 33.2481 38.2017C32.9979 37.7983 32.5491 37.9747 32.6649 38.3863C32.7934 39.6008 32.2084 40.0152 31.4849 40.2743C31.8912 39.3263 31.8597 38.6489 31.315 38.289C30.6725 38.8647 30.6786 39.5516 30.8667 40.2694C29.8129 40.0315 29.2517 37.9957 30.3555 37.7741ZM28.9062 26.4107C28.1646 26.6065 27.2121 25.3555 26.4038 24.6752C25.5791 23.7952 24.5454 23.0796 23.3058 22.5264C19.9328 21.3759 19.6179 19.7975 20.4579 18.0574C21.8042 20.4029 24.406 20.8983 25.6953 21.1481C26.366 20.5759 27.4575 20.1805 28.9062 20.1852C30.3549 20.1805 31.4464 20.5759 32.1171 21.1481C33.4064 20.8983 36.0082 20.4029 37.3545 18.0574C38.1945 19.7975 37.8795 21.3759 34.5065 22.5264C33.2669 23.0796 32.2333 23.7952 31.4086 24.6752C30.6003 25.3555 29.6477 26.6065 28.9062 26.4107ZM28.9062 30.1787C28.2039 29.1213 27.792 27.5145 28.9062 27.5145C30.0203 27.5145 29.6084 29.1213 28.9062 30.1787ZM28.9062 36.4131C26.8394 35.1291 25.2182 33.4146 24.923 30.4186C24.0385 31.7839 24.2273 33.1817 25.4292 34.6103C24.7345 34.4216 24.0686 34.1366 23.4687 33.6309C23.5666 34.4605 23.8959 35.1352 24.3731 35.7113C20.8713 34.559 19.8192 28.9481 22.0483 25.8654C22.5148 28.734 24.9656 30.139 27.1759 30.0075C27.9538 30.8707 28.4926 31.3611 28.9062 31.6565C29.3198 31.3611 29.8585 30.8707 30.6364 30.0075C32.8468 30.139 35.2976 28.734 35.7641 25.8654C37.9932 28.9481 36.941 34.559 33.4393 35.7113C33.9164 35.1352 34.2458 34.4605 34.3436 33.6309C33.7438 34.1366 33.0779 34.4216 32.3832 34.6103C33.585 33.1817 33.7738 31.7839 32.8894 30.4186C32.5942 33.4146 30.973 35.1291 28.9062 36.4131ZM34.3851 31.0065C34.4559 32.2594 34.2639 32.5789 34.1044 33.0138C35.0619 32.5568 35.6151 31.4179 35.7432 29.5619C35.3387 30.3252 34.9112 30.9542 34.3851 31.0065ZM28.9062 34.5775C30.418 33.617 31.4847 32.4384 31.5293 30.7427C30.8554 31.8929 29.9848 32.7352 28.9062 33.2518C27.8276 32.7352 26.957 31.8929 26.2831 30.7427C26.3276 32.4384 27.3944 33.617 28.9062 34.5775ZM28.9062 46.9385C27.5887 46.8272 26.8578 45.1156 27.9405 40.8464C28.051 40.8593 28.157 40.8453 28.2592 40.8084C28.401 41.6329 28.622 42.4429 28.9062 43.2414C29.1904 42.4429 29.4114 41.6329 29.5531 40.8084C29.6553 40.8453 29.7613 40.8593 29.8718 40.8464C30.9546 45.1156 30.2237 46.8272 28.9062 46.9385ZM26.1932 25.9431C25.785 26.7536 24.4284 25.9659 24.9428 24.9212C25.2076 25.5512 25.6047 25.9295 26.1932 25.9431ZM24.2812 24.4893C23.6166 26.2634 25.393 27.4618 26.709 26.3506C27.0065 26.5564 27.3483 26.6843 27.7105 26.7764C26.0963 30.5849 21.5153 26.7386 23.4133 23.8081C23.6449 24.0599 23.9363 24.2861 24.2812 24.4893ZM26.9457 41.3686C26.5524 47.2214 22.5719 47.1851 23.2589 44.2555C23.7604 43.1743 24.3576 42.125 24.9779 41.0835C25.6534 41.6588 26.3107 41.7869 26.9457 41.3686ZM24.0843 40.8746C22.9132 43.443 21.5674 44.5229 20.0802 44.3986C18.2634 43.6991 20.0247 41.8771 22.9856 39.7249C23.2021 40.2082 23.5763 40.5861 24.0843 40.8746ZM22.5036 39.0045C18.952 42.9589 15.5532 43.2544 15.5623 40.8084L21.8132 37.5674C21.9141 38.1274 22.1497 38.603 22.5036 39.0045ZM27.4569 37.7741C28.5607 37.9957 27.9994 40.0315 26.9457 40.2694C27.1337 39.5516 27.1399 38.8647 26.4974 38.289C25.9527 38.6489 25.9212 39.3263 26.3274 40.2743C25.604 40.0152 25.019 39.6008 25.1474 38.3863C25.2632 37.9747 24.8145 37.7983 24.5643 38.2017C24.3263 38.5069 24.4183 39.1166 24.9437 39.8364C23.3157 39.7985 22.5727 36.2882 24.9721 36.7096C25.5896 35.968 26.8995 36.3169 27.4569 37.7741Z" fill="#E5E5E5"/>
<path fill-rule="evenodd" clip-rule="evenodd" d="M28.9137 17.5297C28.724 15.5212 27.6859 14.5387 26.0637 14.2627C27.6859 13.9867 28.724 13.0042 28.9137 10.9956C29.1034 13.0042 30.1415 13.9867 31.7636 14.2627C30.1415 14.5387 29.1034 15.5212 28.9137 17.5297Z" fill="#E5E5E5"/>
<path fill-rule="evenodd" clip-rule="evenodd" d="M35.1913 16.7101C35.0798 15.5295 34.4696 14.952 33.5161 14.7897C34.4696 14.6275 35.0798 14.05 35.1913 12.8694C35.3028 14.05 35.913 14.6275 36.8665 14.7897C35.913 14.952 35.3028 15.5295 35.1913 16.7101Z" fill="#E5E5E5"/>
<path fill-rule="evenodd" clip-rule="evenodd" d="M22.5604 14.4146C22.5003 13.7779 22.1712 13.4665 21.657 13.3789C22.1712 13.2915 22.5003 12.98 22.5604 12.3433C22.6206 12.98 22.9497 13.2915 23.4639 13.3789C22.9497 13.4665 22.6206 13.7779 22.5604 14.4146Z" fill="#E5E5E5"/>
<path fill-rule="evenodd" clip-rule="evenodd" d="M17.8673 28.7191C17.8072 28.0823 17.4781 27.7709 16.9639 27.6834C17.4781 27.5959 17.8072 27.2844 17.8673 26.6477C17.9275 27.2844 18.2565 27.5959 18.7708 27.6834C18.2565 27.7709 17.9275 28.0823 17.8673 28.7191Z" fill="#E5E5E5"/>
<path fill-rule="evenodd" clip-rule="evenodd" d="M43.3438 30.9498C43.279 30.2642 42.9246 29.9288 42.3708 29.8345C42.9246 29.7403 43.279 29.4049 43.3438 28.7192C43.4085 29.4049 43.7629 29.7403 44.3167 29.8345C43.7629 29.9288 43.4085 30.2642 43.3438 30.9498Z" fill="#E5E5E5"/>
<path fill-rule="evenodd" clip-rule="evenodd" d="M23.4638 17.5297C23.4162 17.0258 23.1558 16.7793 22.7488 16.7101C23.1558 16.6408 23.4162 16.3943 23.4638 15.8904C23.5114 16.3943 23.7719 16.6408 24.1788 16.7101C23.7719 16.7793 23.5114 17.0258 23.4638 17.5297Z" fill="#E5E5E5"/>
<path fill-rule="evenodd" clip-rule="evenodd" d="M18.759 16.2594C18.7212 15.8597 18.5147 15.6642 18.1919 15.6093C18.5147 15.5544 18.7212 15.3589 18.759 14.9592C18.7967 15.3589 19.0033 15.5544 19.3261 15.6093C19.0033 15.6642 18.7967 15.8597 18.759 16.2594Z" fill="#E5E5E5"/>
<path d="M39.8474 12.8086C40.0377 12.8086 40.1919 12.654 40.1919 12.4634C40.1919 12.2727 40.0377 12.1182 39.8474 12.1182C39.6572 12.1182 39.5029 12.2727 39.5029 12.4634C39.5029 12.654 39.6572 12.8086 39.8474 12.8086Z" fill="#E5E5E5"/>
<path d="M39.0755 17.3634C39.2332 17.3634 39.361 17.2354 39.361 17.0773C39.361 16.9193 39.2332 16.7913 39.0755 16.7913C38.9178 16.7913 38.79 16.9193 38.79 17.0773C38.79 17.2354 38.9178 17.3634 39.0755 17.3634Z" fill="#E5E5E5"/>
<path d="M39.5487 33.9766C39.8114 33.9766 40.0244 33.7632 40.0244 33.4999C40.0244 33.2366 39.8114 33.0232 39.5487 33.0232C39.286 33.0232 39.073 33.2366 39.073 33.4999C39.073 33.7632 39.286 33.9766 39.5487 33.9766Z" fill="#E5E5E5"/>
<path d="M40.7845 26.5827C40.9383 26.5827 41.063 26.4578 41.063 26.3037C41.063 26.1496 40.9383 26.0247 40.7845 26.0247C40.6308 26.0247 40.5061 26.1496 40.5061 26.3037C40.5061 26.4578 40.6308 26.5827 40.7845 26.5827Z" fill="#E5E5E5"/>
<path fill-rule="evenodd" clip-rule="evenodd" d="M45.3469 44.8997C42.4381 45.0564 39.5823 45.125 39.1189 45.1459C38.9043 45.1557 40.2715 44.5773 40.7213 44.5296C42.1115 44.3821 43.6981 44.3266 45.2682 44.2626C45.3321 43.4383 46.0207 42.7884 46.8596 42.7884C47.466 42.7884 47.9939 43.1279 48.2641 43.6275C48.3403 43.7687 48.3961 43.9225 48.4273 44.0851C49.5737 43.9871 50.6172 43.8402 51.4517 43.5942C52.0239 43.4256 52.4781 43.0979 52.7927 42.8231C53.0454 42.6024 53.1848 42.3355 53.1639 42.003C53.1097 41.1399 52.4399 40.4826 51.2037 39.983C49.1098 39.1367 46.2946 39.1639 41.1869 38.6545C40.9733 38.6332 39.7778 38.2448 39.9923 38.2353C45.419 37.9942 49.3384 38.3881 51.4948 39.2598C53.0928 39.9056 53.9564 40.8361 53.9405 41.954C53.9257 43.0063 53.0776 43.7794 51.6173 44.2343C51.0163 44.4215 49.846 44.5726 48.4267 44.694C48.2841 45.4307 47.6363 45.9878 46.8596 45.9878C46.1571 45.9878 45.56 45.532 45.3469 44.8997ZM46.8596 43.5682C46.4081 43.5682 46.0415 43.9356 46.0415 44.3881C46.0415 44.8405 46.4081 45.2079 46.8596 45.2079C47.3111 45.2079 47.6777 44.8405 47.6777 44.3881C47.6777 43.9356 47.3111 43.5682 46.8596 43.5682Z" fill="#E5E5E5"/>
<path fill-rule="evenodd" clip-rule="evenodd" d="M6.7178 44.7812C4.80487 43.8558 4.12488 43.2416 3.92854 42.383C3.70944 41.4247 4.11758 40.4911 5.23707 39.7086C5.88194 39.2579 6.65717 38.9653 7.64131 38.7694C7.27827 37.163 7.55113 35.9518 8.31935 35.1687C9.10839 34.3643 10.2433 33.9352 11.6595 33.9662C13.7098 34.0111 15.6958 35.017 17.4285 36.8304C17.5692 36.9777 16.878 36.9681 16.7217 36.8375C14.8293 35.2562 13.0304 34.5711 11.3847 34.6977C10.3097 34.7804 9.4374 35.0022 8.87743 35.6518C8.30591 36.3148 7.97285 37.3434 8.23321 38.6665C10.2944 38.3556 13.1909 38.361 17.4879 38.2399C17.6688 38.2348 16.1244 38.7407 15.9439 38.7543C12.7383 38.9957 10.2743 38.9908 8.4031 39.278C9.80247 43.5046 12.5551 44.1483 16.9447 44.5598C17.1619 44.5802 18.7921 45.1501 18.5783 45.1572C13.8346 45.3136 9.57925 44.2583 7.82255 39.3809C6.94702 39.5593 6.21652 39.8257 5.61218 40.2479C4.9262 40.7271 4.61099 41.2519 4.59256 41.811C4.57927 42.215 4.67848 42.7336 5.06798 43.1255C5.48045 43.5403 5.95261 44.0746 6.92664 44.2301C7.032 44.1408 7.16814 44.0871 7.31678 44.0871C7.65078 44.0871 7.92198 44.3588 7.92198 44.6936C7.92198 45.0283 7.65078 45.3001 7.31678 45.3001C7.01241 45.3001 6.76022 45.0744 6.7178 44.7812ZM10.0819 44.6936C10.4159 44.6936 10.6871 44.9653 10.6871 45.3001C10.6871 45.6348 10.4159 45.9066 10.0819 45.9066C9.74791 45.9066 9.47671 45.6348 9.47671 45.3001C9.47671 44.9653 9.74791 44.6936 10.0819 44.6936Z" fill="#E5E5E5"/>
<path fill-rule="evenodd" clip-rule="evenodd" d="M30.8668 41.3686C31.5019 41.7868 32.1592 41.6587 32.8347 41.0834C33.455 42.125 33.3867 41.8947 33.8883 42.9759C34.1271 44.3958 31.0399 45.8384 30.8668 41.3686ZM33.7284 40.8745C34.2362 40.586 34.6104 40.2081 34.827 39.7249C35.4399 40.1561 37.2468 41.081 35.5405 42.0665C34.2468 42.5139 34.3791 42.0588 33.7284 40.8745ZM35.3089 39.0045C35.6628 38.6029 35.8984 38.1273 35.9993 37.5674L38.1365 38.6906C37.0103 40.5397 35.8707 39.8838 35.3089 39.0045ZM34.3992 31.005L34.2033 30.5375C34.839 30.0288 35.3943 29.2489 35.8612 28.1711C36.4758 28.9831 36.66 30.1694 36.7856 31.3447C36.3939 33.346 35.2407 35.1185 33.4394 35.7113C33.912 35.1408 34.2395 34.4736 34.3408 33.6553C34.7225 33.2624 36.4968 30.9278 35.7841 29.4369C35.6757 29.684 35.3324 30.2976 34.9713 30.6979C34.7925 30.8696 34.6032 30.9806 34.3992 31.005ZM32.3843 34.61L32.3833 34.6103C33.5685 33.2015 33.7686 31.8228 32.9259 30.4757C32.9091 30.4105 32.891 30.3454 32.8715 30.2806C34.1901 31.6481 34.0084 33.0999 32.3843 34.61ZM37.7349 19.2913C37.86 20.519 37.0857 21.6209 34.622 22.4865C35.5125 21.5512 37.1544 20.3264 37.7349 19.2913ZM28.9064 26.4107C28.4639 26.5275 27.9463 26.1293 27.4291 25.6444C27.9689 26.0028 28.5087 26.2516 28.9064 26.1467C29.3041 26.2516 29.8439 26.0028 30.3837 25.6444C29.8664 26.1293 29.3488 26.5275 28.9064 26.4107ZM28.9064 33.2518C27.8279 32.7352 26.9574 31.893 26.2834 30.743C26.2727 30.6573 26.2785 30.5993 26.2799 30.5375C26.904 31.335 27.7554 32.0833 28.9064 32.7002C30.0573 32.0833 30.9087 31.335 31.5328 30.5375C31.5342 30.5993 31.54 30.6573 31.5293 30.743C30.8553 31.893 29.9849 32.7352 28.9064 33.2518ZM28.9064 34.8774C29.062 34.7382 30.3335 33.9251 30.7346 33.7505C31.2211 33.5386 31.9436 33.0574 32.2763 32.8221C31.5697 34.4106 30.356 35.5091 28.9274 36.4C28.9209 36.4041 28.9132 36.4088 28.9064 36.4131C28.8994 36.4089 28.8918 36.404 28.8853 36.4C27.4568 35.5091 26.2431 34.4106 25.5365 32.8221C25.8692 33.0574 26.5916 33.5386 27.0782 33.7505C27.4792 33.9251 28.7508 34.7382 28.9064 34.8774ZM28.9064 44.5538C27.6398 44.4161 27.1222 43.6461 27.9408 40.8315C28.0512 40.8394 28.1572 40.8309 28.2594 40.8083C28.3999 41.3074 28.6256 42.7009 28.9064 43.2004C29.1871 42.7009 29.4128 41.3074 29.5533 40.8083C29.6555 40.8309 29.7615 40.8394 29.872 40.8315C30.6906 43.6461 30.1729 44.4161 28.9064 44.5538ZM26.9459 41.3686C26.7729 45.8384 23.6856 44.3958 23.9245 42.9759C24.426 41.8947 24.3577 42.125 24.978 41.0834C25.6535 41.6587 26.3108 41.7868 26.9459 41.3686ZM24.0844 40.8745C23.4336 42.0588 23.5659 42.5139 22.2722 42.0665C20.566 41.081 22.3728 40.1561 22.9858 39.7249C23.2024 40.2081 23.5765 40.586 24.0844 40.8745ZM22.5038 39.0045C21.942 39.8838 20.8024 40.5397 19.6763 38.6906L21.8134 37.5674C21.9143 38.1273 22.15 38.6029 22.5038 39.0045ZM23.4135 31.005C23.2095 30.9806 23.0203 30.8696 22.8414 30.6979C22.4803 30.2976 22.137 29.684 22.0286 29.4369C21.316 30.9278 23.0902 33.2624 23.4719 33.6553C23.5732 34.4736 23.9008 35.1408 24.3733 35.7113C22.572 35.1185 21.4189 33.346 21.0271 31.3447C21.1527 30.1694 21.3369 28.9831 21.9515 28.1711C22.4184 29.2489 22.9737 30.0288 23.6094 30.5375L23.4135 31.005ZM25.4284 34.61C23.8043 33.0999 23.6226 31.6481 24.9412 30.2806C24.9217 30.3454 24.9036 30.4105 24.8869 30.4757C24.0441 31.8228 24.2443 33.2015 25.4294 34.6103L25.4284 34.61ZM20.0778 19.2913C20.6583 20.3264 22.3002 21.5512 23.1907 22.4865C20.7271 21.6209 19.9527 20.519 20.0778 19.2913Z" fill="#14213D" fill-opacity="0.35"/>
<path d="M81.1814 36.8053H95.1043V42.0841H74.6233V10.1924H81.1814V36.8053Z" fill="black"/>
<path d="M105.421 36.8053H119.344V42.0841H98.8625V10.1924H105.421V36.8053Z" fill="black"/>
<path d="M142.576 15.5149H132.828V42.0841H126.272V15.5149H116.656V10.1924H142.576V15.5149Z" fill="black"/>
<path d="M158.641 39.6749C157.081 41.5732 154.925 42.5223 152.172 42.5223C149.635 42.5223 147.702 41.7921 146.369 40.3319C145.035 38.8717 144.355 36.7325 144.324 33.9141V18.3845H150.642V33.7129C150.642 36.1834 151.764 37.4187 154.006 37.4187C156.149 37.4187 157.62 36.6731 158.422 35.1818V18.3845H164.761V42.0842H158.816L158.641 39.6749Z" fill="black"/>
<path d="M177.087 12.5581V18.3846H181.132V23.0282H177.087V34.8562C177.087 35.7323 177.255 36.3601 177.59 36.7398C177.926 37.1194 178.567 37.3094 179.514 37.3094C180.213 37.3094 180.833 37.2582 181.372 37.1559V41.953C180.134 42.3326 178.859 42.5223 177.546 42.5223C173.116 42.5223 170.86 40.2808 170.771 35.798V23.0282H167.318V18.3846H170.771V12.5581H177.087Z" fill="black"/>
<path d="M183.011 30.0152C183.011 27.664 183.463 25.5688 184.365 23.7289C185.27 21.889 186.569 20.4652 188.268 19.4575C189.965 18.45 191.935 17.9463 194.181 17.9463C197.37 17.9463 199.974 18.9245 201.993 20.8813C204.012 22.838 205.138 25.4956 205.371 28.8542L205.413 30.4752C205.413 34.1111 204.401 37.0281 202.375 39.2257C200.352 41.4233 197.633 42.5221 194.223 42.5221C190.814 42.5221 188.093 41.427 186.06 39.2367C184.027 37.0463 183.011 34.0674 183.011 30.3V30.0152ZM189.327 30.4645C189.327 32.7167 189.751 34.4389 190.595 35.6307C191.441 36.8227 192.649 37.4185 194.223 37.4185C195.754 37.4185 196.948 36.83 197.808 35.6526C198.668 34.4753 199.097 32.5924 199.097 30.004C199.097 27.7954 198.668 26.0844 197.808 24.8704C196.948 23.6567 195.738 23.0497 194.181 23.0497C192.635 23.0497 191.441 23.6529 190.595 24.8597C189.751 26.0662 189.327 27.9344 189.327 30.4645Z" fill="black"/>
<path d="M222.593 24.3202C221.732 24.2034 220.975 24.145 220.32 24.145C217.93 24.145 216.363 24.9555 215.622 26.5762V42.084H209.304V18.3844H215.272L215.447 21.2098C216.713 19.0341 218.469 17.9463 220.714 17.9463C221.413 17.9463 222.068 18.0412 222.681 18.2309L222.593 24.3202Z" fill="black"/>
</svg>
